<svg width="57" height="64" xmlns="http://www.w3.org/2000/svg" preserveAspectRatio="xMidYMid meet">

 <g>
  <title>Layer 1</title>
  <g id="svg_1" fill="#000000" transform="translate(0,64) scale(0.10000000149011612,-0.10000000149011612) ">
   <path id="svg_2" d="m97,573c5,-66 4,-70 -31,-121c-19,-29 -41,-72 -47,-95c-17,-62 -6,-147 27,-207c50,-92 133,-140 243,-140c191,0 319,186 255,372c-33,97 -136,175 -239,180c-27,2 -53,7 -57,12c-3,5 -14,2 -23,-7c-23,-23 -37,-21 -35,6c4,39 0,67 -8,67c-4,0 -6,-20 -4,-44c3,-39 1,-46 -26,-65c-17,-11 -33,-21 -36,-21c-3,0 -6,29 -6,65c0,36 -4,65 -9,65c-6,0 -8,-28 -4,-67zm316,-56c52,-31 79,-59 108,-117c31,-58 33,-156 5,-218c-18,-40 -20,-41 -37,-26c-16,14 -31,15 -120,6c-65,-6 -113,-6 -130,0c-61,21 -63,126 -8,294l32,96l54,-5c31,-3 72,-16 96,-30zm-198,-14c-19,-44 -51,-170 -60,-235c-8,-57 9,-124 35,-138c27,-15 98,-12 191,6c76,16 82,16 97,0c16,-16 15,-20 -22,-51c-102,-90 -257,-84 -354,13c-79,80 -99,202 -49,304c30,61 54,87 112,117c59,31 68,28 50,-16z"/>
   <path id="svg_3" d="m120,597c0,-26 4,-47 9,-47c8,0 3,79 -5,89c-2,2 -4,-17 -4,-42z"/>
   <path id="svg_4" d="m151,624c0,-11 3,-14 6,-6c3,7 2,16 -1,19c-3,4 -6,-2 -5,-13z"/>
   <path id="svg_5" d="m200,625c0,-8 2,-15 4,-15c2,0 6,7 10,15c3,8 1,15 -4,15c-6,0 -10,-7 -10,-15z"/>
   <path id="svg_6" d="m230,624c0,-8 5,-12 10,-9c6,3 10,10 10,16c0,5 -4,9 -10,9c-5,0 -10,-7 -10,-16z"/>
   <path id="svg_7" d="m272,615c0,-16 2,-22 5,-12c2,9 2,23 0,30c-3,6 -5,-1 -5,-18z"/>
  </g>
 </g>
</svg>